<svg xmlns="http://www.w3.org/2000/svg" width="84" height="84" viewBox="0 0 84 84">
  <g id="Group_10" data-name="Group 10" transform="translate(-1403 -6813)">
    <circle id="Ellipse_4" data-name="Ellipse 4" cx="42" cy="42" r="42" transform="translate(1403 6813)" fill="#fff"/>
    <path id="FontAwsome_envelope_" data-name="FontAwsome (envelope)" d="M47.091,75.888a.564.564,0,0,1,.909.441V95.5a4.5,4.5,0,0,1-4.5,4.5H4.5A4.5,4.5,0,0,1,0,95.5V76.338A.561.561,0,0,1,.909,75.9c2.1,1.631,4.884,3.7,14.447,10.65,1.978,1.444,5.316,4.481,8.644,4.463,3.347.028,6.75-3.075,8.653-4.463C42.216,79.6,44.991,77.519,47.091,75.888ZM24,88c2.175.038,5.306-2.737,6.881-3.881C43.322,75.091,44.269,74.3,47.138,72.053A2.243,2.243,0,0,0,48,70.281V68.5A4.5,4.5,0,0,0,43.5,64H4.5A4.5,4.5,0,0,0,0,68.5v1.781a2.257,2.257,0,0,0,.863,1.772c2.869,2.241,3.816,3.038,16.256,12.066C18.694,85.263,21.825,88.038,24,88Z" transform="translate(1421 6773)"/>
  </g>
</svg>
