<svg xmlns="http://www.w3.org/2000/svg" width="84" height="84" viewBox="0 0 84 84">
  <g id="Group_8" data-name="Group 8" transform="translate(-1205 -6813)">
    <circle id="Ellipse_2" data-name="Ellipse 2" cx="42" cy="42" r="42" transform="translate(1205 6813)" fill="#fff"/>
    <path id="FontAwsome_twitter_" data-name="FontAwsome (twitter)" d="M46.02,58.464c.033.456.033.911.033,1.367,0,13.9-10.577,29.91-29.91,29.91A29.707,29.707,0,0,1,0,85.022a21.748,21.748,0,0,0,2.539.13A21.053,21.053,0,0,0,15.589,80.66a10.531,10.531,0,0,1-9.829-7.29,13.256,13.256,0,0,0,1.985.163,11.118,11.118,0,0,0,2.766-.358A10.514,10.514,0,0,1,2.083,62.858v-.13a10.587,10.587,0,0,0,4.752,1.334A10.528,10.528,0,0,1,3.58,50,29.881,29.881,0,0,0,25.255,61,11.867,11.867,0,0,1,25,58.594,10.522,10.522,0,0,1,43.188,51.4a20.7,20.7,0,0,0,6.672-2.539,10.484,10.484,0,0,1-4.622,5.793,21.074,21.074,0,0,0,6.053-1.627A22.6,22.6,0,0,1,46.02,58.464Z" transform="translate(1222.354 6788.918)"/>
  </g>
</svg>
