<svg xmlns="http://www.w3.org/2000/svg" width="166" height="166" viewBox="0 0 166 166">
  <g id="Group_236" data-name="Group 236" transform="translate(-117 -1226)">
    <circle id="Ellipse_20" data-name="Ellipse 20" cx="83" cy="83" r="83" transform="translate(117 1226)" fill="#c4c4c4"/>
    <path id="Icon_awesome-user" data-name="Icon awesome-user" d="M20.886,23.869A11.935,11.935,0,1,0,8.951,11.935,11.934,11.934,0,0,0,20.886,23.869Zm8.354,2.984H27.683a16.231,16.231,0,0,1-13.594,0H12.531A12.535,12.535,0,0,0,0,39.384v3.879a4.477,4.477,0,0,0,4.475,4.475H37.3a4.477,4.477,0,0,0,4.475-4.475V39.384A12.535,12.535,0,0,0,29.24,26.853Z" transform="translate(179.115 1285.131)" fill="#fff"/>
  </g>
</svg>
