<svg xmlns="http://www.w3.org/2000/svg" width="84" height="84" viewBox="0 0 84 84">
  <g id="Group_9" data-name="Group 9" transform="translate(-1305 -6813)">
    <circle id="Ellipse_3" data-name="Ellipse 3" cx="42" cy="42" r="42" transform="translate(1305 6813)" fill="#fff"/>
    <path id="FontAwsome_instagram_" data-name="FontAwsome (instagram)" d="M22.973,43.05A11.813,11.813,0,1,0,34.786,54.863,11.795,11.795,0,0,0,22.973,43.05Zm0,19.493a7.68,7.68,0,1,1,7.68-7.68,7.694,7.694,0,0,1-7.68,7.68ZM38.025,42.566a2.755,2.755,0,1,1-2.755-2.755A2.749,2.749,0,0,1,38.025,42.566Zm7.824,2.8c-.175-3.691-1.018-6.96-3.722-9.654s-5.963-3.537-9.654-3.722c-3.8-.216-15.206-.216-19.01,0C9.782,32.162,6.513,33,3.809,35.7S.272,41.662.087,45.353c-.216,3.8-.216,15.206,0,19.01.175,3.691,1.018,6.96,3.722,9.654s5.963,3.537,9.654,3.722c3.8.216,15.206.216,19.01,0,3.691-.175,6.96-1.018,9.654-3.722s3.537-5.963,3.722-9.654c.216-3.8.216-15.2,0-19ZM40.935,68.445a7.775,7.775,0,0,1-4.38,4.38c-3.033,1.2-10.23.925-13.582.925s-10.559.267-13.582-.925a7.776,7.776,0,0,1-4.38-4.38c-1.2-3.033-.925-10.23-.925-13.582S3.819,44.3,5.012,41.281a7.776,7.776,0,0,1,4.38-4.38c3.033-1.2,10.23-.925,13.582-.925s10.559-.267,13.582.925a7.776,7.776,0,0,1,4.38,4.38c1.2,3.033.925,10.23.925,13.582S42.138,65.422,40.935,68.445Z" transform="translate(1324.032 6800.758)"/>
  </g>
</svg>
