<svg id="LOGO" xmlns="http://www.w3.org/2000/svg" xmlns:xlink="http://www.w3.org/1999/xlink" width="297.415" height="74.23" viewBox="0 0 297.415 74.23">
  <defs>
    <clipPath id="clip-path">
      <rect id="Rectangle_34" data-name="Rectangle 34" width="297.415" height="74.23" fill="none"/>
    </clipPath>
  </defs>
  <g id="Group_42" data-name="Group 42" clip-path="url(#clip-path)">
    <path id="Path_16" data-name="Path 16" d="M1069.481,166.086c-12.871,0-18.847-4.633-18.847-14.54V129.307c0-9.907,5.976-14.54,18.847-14.54h19.153c1.915,0,2.758.784,2.758,2.566v8.624c0,1.782-.843,2.566-2.758,2.566H1072.7c-3.218,0-4.673,1.14-4.673,3.564v17.035c0,2.423,1.149,3.492,3.524,3.492h7.431V141.5c0-1.782.843-2.566,2.758-2.566h11.875c1.915,0,2.758.784,2.758,2.566V163.52c0,1.782-.843,2.566-2.758,2.566Z" transform="translate(-852.224 -93.124)" fill="#f26835"/>
    <path id="Path_17" data-name="Path 17" d="M1347.362,164.193c-19.1,0-23.766-5.83-23.766-14.5V125.447c0-8.674,4.662-14.575,23.766-14.575s23.69,5.9,23.69,14.575V149.69c0,8.674-4.585,14.5-23.69,14.5m0-13.721c5.579,0,6.419-1.422,6.419-3.341V128.006c0-1.849-.841-3.27-6.419-3.27-5.5,0-6.419,1.422-6.419,3.27v19.125c0,1.919.917,3.341,6.419,3.341" transform="translate(-1073.637 -89.963)" fill="#f26835"/>
    <path id="Path_18" data-name="Path 18" d="M2.793,165.442c-1.939,0-2.793-.794-2.793-2.6V116.077c0-1.8.853-2.6,2.793-2.6H26.531c14.119,0,18.308,5.7,18.308,14.073v9.238c0,8.372-4.189,14.074-18.308,14.074H17.61v11.98c0,1.8-.853,2.6-2.793,2.6Zm14.662-27.57h6.982c3.026,0,3.646-1.66,3.646-3.536v-3.825c0-1.876-.62-3.536-3.646-3.536H17.455Z" transform="translate(0 -92.079)" fill="#f9a5a5"/>
    <path id="Path_19" data-name="Path 19" d="M265.228,165.442c-1.939,0-2.793-.794-2.793-2.6V116.077c0-1.8.853-2.6,2.793-2.6h36c1.939,0,2.793.794,2.793,2.6v8.444c0,1.8-.853,2.6-2.793,2.6H279.812v5.557H294.94c1.94,0,2.793.794,2.793,2.6V143c0,1.8-.853,2.6-2.793,2.6H279.812V151.8h21.411c1.939,0,2.793.794,2.793,2.6v8.444c0,1.8-.853,2.6-2.793,2.6Z" transform="translate(-212.875 -92.079)" fill="#f9a5a5"/>
    <path id="Path_20" data-name="Path 20" d="M527.147,165.442c-1.939,0-2.793-.794-2.793-2.6V127.408h-11.4c-1.939,0-2.793-.794-2.793-2.6v-8.733c0-1.8.853-2.6,2.793-2.6h40.961c1.94,0,2.793.794,2.793,2.6v8.733c0,1.8-.853,2.6-2.793,2.6h-11.4v35.436c0,1.8-.853,2.6-2.793,2.6Z" transform="translate(-413.816 -92.079)" fill="#f9a5a5"/>
    <path id="Path_21" data-name="Path 21" d="M785.421,165.442c-1.939,0-2.793-.794-2.793-2.6V154.4c0-1.8.854-2.6,2.793-2.6h20.868a1.936,1.936,0,0,0,2.017-2.093c0-1.66-.7-2.309-2.017-2.454l-11.636-1.516c-7.292-1.01-12.024-3.9-12.024-11.98v-7.578c0-8.228,5.973-12.7,16.059-12.7h21.722c1.939,0,2.793.794,2.793,2.6v8.589c0,1.8-.853,2.6-2.793,2.6H802.333a1.981,1.981,0,0,0-2.094,2.165,2.177,2.177,0,0,0,2.094,2.31l11.559,1.443c7.292,1.01,12.1,3.9,12.1,11.981v7.578c0,8.227-6.051,12.7-16.058,12.7Z" transform="translate(-634.831 -92.079)" fill="#f9a5a5"/>
    <path id="Path_22" data-name="Path 22" d="M83.417,165.621A10.432,10.432,0,1,1,72.986,155.2a10.424,10.424,0,0,1,10.432,10.417" transform="translate(-50.741 -125.935)" fill="#fff"/>
    <path id="Path_23" data-name="Path 23" d="M89.654,187.525c0,1.6-.526,2.906-1.175,2.906s-1.175-1.3-1.175-2.906.526-2.906,1.175-2.906,1.175,1.3,1.175,2.906" transform="translate(-70.817 -149.803)"/>
    <path id="Path_24" data-name="Path 24" d="M126.44,182.784c0,1.6-.669,2.906-1.494,2.906s-1.494-1.3-1.494-2.906.669-2.906,1.494-2.906,1.494,1.3,1.494,2.906" transform="translate(-100.139 -145.956)"/>
    <path id="Path_25" data-name="Path 25" d="M88.893,212.673a3.031,3.031,0,0,1-.526-.047,3.361,3.361,0,0,1-2.742-3.244.373.373,0,0,1,.745-.029,2.62,2.62,0,0,0,2.126,2.54,1.719,1.719,0,0,0,1.993-1.007,2.012,2.012,0,0,0,.12-.972l-.2-1.826.741-.079.174,1.622a2.55,2.55,0,0,0,1.468,1.521,3.355,3.355,0,0,0,2.743-.325,3.459,3.459,0,0,0,1.3-5.119.373.373,0,0,1,.623-.409,4.281,4.281,0,0,1,.615,3.536,4.23,4.23,0,0,1-2.2,2.657,4.07,4.07,0,0,1-3.342.357,3.1,3.1,0,0,1-1.277-.9q-.033.11-.076.215a2.4,2.4,0,0,1-2.287,1.506" transform="translate(-69.455 -166.446)" fill="#f26835"/>
    <path id="Path_26" data-name="Path 26" d="M104.279,213.543c-1.143.083-2.116-.491-2.174-1.281s.822-1.5,1.965-1.583,2.116.491,2.174,1.281-.822,1.5-1.965,1.583" transform="translate(-82.821 -170.941)" fill="#c67539"/>
    <path id="Path_27" data-name="Path 27" d="M762.553,51.3a6.739,6.739,0,1,1-6.739-6.73,6.734,6.734,0,0,1,6.739,6.73" transform="translate(-607.614 -36.164)" fill="#f9a5a5"/>
    <path id="Path_28" data-name="Path 28" d="M722.815,26.187a3.61,3.61,0,1,1-3.61-3.605,3.608,3.608,0,0,1,3.61,3.605" transform="translate(-580.456 -18.323)" fill="#f9a5a5"/>
    <path id="Path_29" data-name="Path 29" d="M823.243,25a3.611,3.611,0,1,1-3.61-3.605A3.608,3.608,0,0,1,823.243,25" transform="translate(-661.918 -17.359)" fill="#f9a5a5"/>
    <path id="Path_30" data-name="Path 30" d="M772.863,3.606A3.611,3.611,0,1,1,769.253,0a3.608,3.608,0,0,1,3.61,3.605" transform="translate(-621.052 -0.001)" fill="#f9a5a5"/>
  </g>
</svg>
