<svg xmlns="http://www.w3.org/2000/svg" width="98.11" height="15.716" viewBox="0 0 98.11 15.716">
  <g id="star5" transform="translate(0.512 0.5)">
    <path id="Icon_awesome-star" data-name="Icon awesome-star" d="M8.3.51l-1.875,3.8-4.194.611A.919.919,0,0,0,1.72,6.49L4.754,9.447l-.718,4.177a.918.918,0,0,0,1.332.967l3.752-1.972,3.752,1.972a.919.919,0,0,0,1.332-.967l-.718-4.177L16.521,6.49a.919.919,0,0,0-.508-1.567l-4.194-.611L9.944.51A.919.919,0,0,0,8.3.51Z" transform="translate(-1.441 0.001)" fill="#f2da5e" stroke="#000" stroke-width="1"/>
    <path id="Icon_awesome-star-2" data-name="Icon awesome-star" d="M8.3.51l-1.875,3.8-4.194.611A.919.919,0,0,0,1.72,6.49L4.754,9.447l-.718,4.177a.918.918,0,0,0,1.332.967l3.752-1.972,3.752,1.972a.919.919,0,0,0,1.332-.967l-.718-4.177L16.521,6.49a.919.919,0,0,0-.508-1.567l-4.194-.611L9.944.51A.919.919,0,0,0,8.3.51Z" transform="translate(18.991 0.001)" fill="#f2da5f" stroke="#000" stroke-width="1"/>
    <path id="Icon_awesome-star-3" data-name="Icon awesome-star" d="M8.3.51l-1.875,3.8-4.194.611A.919.919,0,0,0,1.72,6.49L4.754,9.447l-.718,4.177a.918.918,0,0,0,1.332.967l3.752-1.972,3.752,1.972a.919.919,0,0,0,1.332-.967l-.718-4.177L16.521,6.49a.919.919,0,0,0-.508-1.567l-4.194-.611L9.944.51A.919.919,0,0,0,8.3.51Z" transform="translate(59.855 0.001)" fill="#f2da5f" stroke="#000" stroke-width="1"/>
    <path id="Icon_awesome-star-4" data-name="Icon awesome-star" d="M8.3.51l-1.875,3.8-4.194.611A.919.919,0,0,0,1.72,6.49L4.754,9.447l-.718,4.177a.918.918,0,0,0,1.332.967l3.752-1.972,3.752,1.972a.919.919,0,0,0,1.332-.967l-.718-4.177L16.521,6.49a.919.919,0,0,0-.508-1.567l-4.194-.611L9.944.51A.919.919,0,0,0,8.3.51Z" transform="translate(39.423 0.001)" fill="#f2da5f" stroke="#000" stroke-width="1"/>
    <path id="Icon_awesome-star-5" data-name="Icon awesome-star" d="M8.3.51l-1.875,3.8-4.194.611A.919.919,0,0,0,1.72,6.49L4.754,9.447l-.718,4.177a.918.918,0,0,0,1.332.967l3.752-1.972,3.752,1.972a.919.919,0,0,0,1.332-.967l-.718-4.177L16.521,6.49a.919.919,0,0,0-.508-1.567l-4.194-.611L9.944.51A.919.919,0,0,0,8.3.51Z" transform="translate(80.287 0.001)" fill="#f2da5f" stroke="#000" stroke-width="1"/>
  </g>
</svg>
