<svg xmlns="http://www.w3.org/2000/svg" width="17.438" height="17.438" viewBox="0 0 17.438 17.438">
  <path id="Icon_awesome-plus-circle" data-name="Icon awesome-plus-circle" d="M9.281.563A8.719,8.719,0,1,0,18,9.281,8.717,8.717,0,0,0,9.281.563Zm5.063,9.7a.423.423,0,0,1-.422.422H10.688v3.234a.423.423,0,0,1-.422.422H8.3a.423.423,0,0,1-.422-.422V10.688H4.641a.423.423,0,0,1-.422-.422V8.3a.423.423,0,0,1,.422-.422H7.875V4.641A.423.423,0,0,1,8.3,4.219h1.969a.423.423,0,0,1,.422.422V7.875h3.234a.423.423,0,0,1,.422.422Z" transform="translate(-0.563 -0.563)"/>
</svg>
